<?xml version="1.0" standalone="no"?>
<!DOCTYPE svg PUBLIC "-//W3C//DTD SVG 20010904//EN"
 "http://www.w3.org/TR/2001/REC-SVG-20010904/DTD/svg10.dtd">
<svg version="1.0" xmlns="http://www.w3.org/2000/svg"
 width="233.000000pt" height="169.000000pt" viewBox="0 0 233.000000 169.000000"
 preserveAspectRatio="xMidYMid meet">
<metadata>
Created by potrace 1.16, written by Peter Selinger 2001-2019
</metadata>
<g transform="translate(0.000000,169.000000) scale(0.100000,-0.100000)"
fill="#000000" stroke="none">
<path d="M0 845 l0 -845 1165 0 1165 0 0 845 0 845 -1165 0 -1165 0 0 -845z
m2028 796 c9 -6 1 -18 -33 -45 -51 -43 -69 -70 -58 -90 4 -8 42 -50 84 -94 74
-79 76 -83 88 -154 19 -111 60 -266 87 -335 l25 -62 -28 -68 -28 -68 -54 -5
c-102 -11 -115 -5 -141 58 -19 47 -46 80 -156 189 -98 96 -134 138 -134 155 0
33 -22 61 -41 53 -20 -8 -35 -58 -50 -161 -13 -91 -6 -183 22 -304 21 -94 24
-101 84 -245 78 -185 84 -278 20 -334 -69 -60 -80 -61 -714 -61 -376 0 -571 4
-561 10 12 7 8 10 -15 10 -23 0 -27 -3 -15 -10 12 -7 8 -10 -15 -10 -23 0 -27
3 -15 10 13 9 13 10 0 10 -13 0 -13 1 0 10 13 9 13 10 0 10 -13 0 -13 1 0 10
8 5 11 10 6 10 -5 0 -3 7 4 15 7 8 18 15 24 15 6 0 4 -5 -4 -10 -12 -7 -8 -10
15 -10 23 0 27 3 15 10 -13 9 -13 10 0 11 10 0 8 3 -5 9 -19 8 -19 9 -1 9 11
1 16 4 13 8 -4 3 0 15 10 25 15 16 36 18 235 18 177 0 220 3 224 14 3 7 -27
64 -66 125 -39 61 -102 164 -141 228 l-71 116 38 106 c122 350 344 630 580
731 132 58 312 76 474 48 67 -11 72 -11 127 14 32 15 65 29 73 32 25 8 84 6
98 -3z m-1618 -111 c-12 -7 -8 -10 15 -10 23 0 27 3 15 10 -10 7 83 9 275 7
185 -1 290 -6 290 -12 0 -6 -115 -11 -320 -12 -176 -1 -314 1 -306 4 11 5 11
7 0 14 -10 6 -5 9 16 9 23 0 27 -3 15 -10z m390 -213 c0 -8 -7 -18 -16 -21
-27 -11 -361 -7 -344 4 12 7 8 10 -15 10 -23 0 -27 -3 -15 -10 12 -7 8 -10
-15 -10 -23 0 -27 3 -15 10 13 9 13 10 0 10 -11 0 -12 2 -3 8 7 4 105 9 218
11 176 2 205 1 205 -12z"/>
</g>
</svg>
